<svg xmlns="http://www.w3.org/2000/svg" viewBox="0 0 340 340"><defs><style>.cls-1{opacity:0.6;}.cls-2{fill:#ff9d00;}.cls-3{fill:#fca72b;}.cls-4{fill:#f9cd93;}.cls-5{fill:#fcb24f;}.cls-6{fill:#db8200;}.cls-7{fill:#fff;}</style></defs><title>Artboard 1</title><g id="Layer_5" data-name="Layer 5"><g class="cls-1"><ellipse class="cls-2" cx="174" cy="294" rx="131" ry="22"/></g></g><g id="Layer_1" data-name="Layer 1"><circle class="cls-2" cx="220.5" cy="59.5" r="23.5"/><circle class="cls-3" cx="224" cy="56" r="15"/><circle class="cls-4" cx="228.5" cy="51.5" r="7.5"/><circle class="cls-2" cx="259.5" cy="51.5" r="15.5"/><circle class="cls-3" cx="261.81" cy="49.19" r="9.89"/><circle class="cls-4" cx="264.78" cy="46.22" r="4.95"/><circle class="cls-2" cx="284.5" cy="65.5" r="9.5"/><circle class="cls-3" cx="285.91" cy="64.09" r="6.06"/><circle class="cls-4" cx="287.73" cy="62.27" r="3.03"/><path class="cls-2" d="M318,212.5c0,80.91-65.59,96.5-146.5,96.5S25,293.41,25,212.5,107,56,171.5,56C232,56,318,131.59,318,212.5Z"/></g><g id="Layer_3" data-name="Layer 3"><path class="cls-3" d="M302,186.22c0,60.18-70,117.62-109,71.78-34-40-66-52-109-71.78C29.4,161,145.06,69.82,193,69.82,238,69.82,302,126,302,186.22Z"/><ellipse class="cls-4" cx="238.5" cy="121.5" rx="10.5" ry="19.5" transform="translate(14.03 267.3) rotate(-60)"/></g><g id="Layer_4" data-name="Layer 4"><circle class="cls-5" cx="78" cy="267" r="3"/><circle class="cls-5" cx="263" cy="228" r="7"/><circle class="cls-5" cx="200" cy="106" r="9"/><circle class="cls-5" cx="142" cy="139" r="3"/><circle class="cls-5" cx="64" cy="221" r="6"/></g><g id="Layer_2" data-name="Layer 2"><circle class="cls-6" cx="111" cy="183" r="24"/><circle class="cls-6" cx="233" cy="183" r="24"/><circle cx="111" cy="183" r="19"/><circle cx="233" cy="183" r="19"/><circle class="cls-7" cx="241" cy="175" r="3"/><circle class="cls-7" cx="119" cy="175" r="3"/><path d="M151,241h46s-6,17-23,17S151,241,151,241Z"/></g></svg>